<svg width="24" height="23" viewBox="0 0 24 23" fill="none" xmlns="http://www.w3.org/2000/svg">
<path d="M22.5317 9.39618H21.6154C21.3954 7.00421 20.2896 4.78074 18.515 3.16188C16.7404 1.54302 14.425 0.645584 12.0229 0.645584C9.62084 0.645584 7.30543 1.54302 5.53081 3.16188C3.7562 4.78074 2.65043 7.00421 2.43039 9.39618H1.51416C1.2819 9.39618 1.05915 9.48845 0.894923 9.65268C0.730692 9.81691 0.638428 10.0397 0.638428 10.2719C0.642275 12.3545 1.21542 14.3965 2.29587 16.1769C3.37632 17.9573 4.92296 19.4085 6.76854 20.3735V20.7807C6.76854 21.2452 6.95306 21.6907 7.28153 22.0191C7.60999 22.3476 8.05548 22.5321 8.52 22.5321H15.5258C15.9904 22.5321 16.4358 22.3476 16.7643 22.0191C17.0928 21.6907 17.2773 21.2452 17.2773 20.7807V20.3735C19.1229 19.4085 20.6695 17.9573 21.75 16.1769C22.8304 14.3965 23.4036 12.3545 23.4074 10.2719C23.4074 10.0397 23.3151 9.81691 23.1509 9.65268C22.9867 9.48845 22.7639 9.39618 22.5317 9.39618ZM17.0014 4.16698C17.2021 4.33118 17.3944 4.5045 17.5783 4.68694C15.2471 5.50701 13.3206 7.19241 12.1981 9.39399H8.96881C9.51615 7.85975 10.5238 6.53189 11.8542 5.59184C13.1845 4.65179 14.7726 4.14538 16.4016 4.1418C16.6019 4.1418 16.8022 4.15166 17.0014 4.16698ZM14.2254 9.39618C15.2871 7.80332 16.8934 6.65243 18.743 6.15927C19.3478 7.14299 19.7273 8.24842 19.8541 9.39618H14.2254ZM12.0229 2.39034C12.7257 2.39081 13.4252 2.48543 14.1028 2.67167C12.4525 3.08105 10.9393 3.91821 9.71567 5.09878C8.49205 6.27935 7.60125 7.76162 7.13306 9.39618H4.1917C4.40893 7.47052 5.32722 5.69214 6.7715 4.40008C8.21578 3.10802 10.085 2.39265 12.0229 2.39034Z" fill="#FF7100"/>
</svg>
