<svg width="19" height="28" viewBox="0 0 19 28" fill="none" xmlns="http://www.w3.org/2000/svg">
<path d="M9.42192 1.49279C9.3648 1.31684 9.25343 1.16349 9.10377 1.05474C8.95412 0.945989 8.77387 0.887424 8.58888 0.887444H3.70776C3.52277 0.887424 3.34252 0.945989 3.19287 1.05474C3.04321 1.16349 2.93184 1.31684 2.87472 1.49279C2.20844 3.63333 1.68873 5.81677 1.31921 8.02795C0.524478 12.8718 0.843026 16.3211 2.26609 18.2806C2.6153 18.7731 3.06261 19.1882 3.5799 19.4996C4.0972 19.811 4.67332 20.012 5.27204 20.0901V25.4079H3.52058C3.28832 25.4079 3.06557 25.5002 2.90134 25.6644C2.73711 25.8287 2.64484 26.0514 2.64484 26.2837C2.64484 26.5159 2.73711 26.7387 2.90134 26.9029C3.06557 27.0671 3.28832 27.1594 3.52058 27.1594H8.77497C9.00723 27.1594 9.22998 27.0671 9.39421 26.9029C9.55844 26.7387 9.6507 26.5159 9.6507 26.2837C9.6507 26.0514 9.55844 25.8287 9.39421 25.6644C9.22998 25.5002 9.00723 25.4079 8.77497 25.4079H7.02351V20.0901C7.62234 20.0124 8.1986 19.8115 8.71595 19.5001C9.2333 19.1886 9.68054 18.7734 10.0295 18.2806C11.4525 16.3211 11.7722 12.8718 10.9774 8.02795C10.6079 5.81677 10.0882 3.63333 9.42192 1.49279ZM3.27975 7.01757C3.60815 5.31208 4.01646 3.75437 4.35143 2.63891H7.94521C8.28018 3.75437 8.6863 5.31208 9.01799 7.01757H3.27975ZM18.408 5.70397C18.408 5.96378 18.331 6.21775 18.1866 6.43377C18.0423 6.64979 17.8371 6.81816 17.5971 6.91758C17.3571 7.017 17.093 7.04302 16.8382 6.99233C16.5833 6.94164 16.3493 6.81654 16.1656 6.63283C15.9819 6.44912 15.8568 6.21505 15.8061 5.96024C15.7554 5.70543 15.7814 5.44131 15.8808 5.20128C15.9802 4.96125 16.1486 4.75609 16.3646 4.61175C16.5807 4.46741 16.8346 4.39037 17.0944 4.39037C17.4428 4.39037 17.7769 4.52877 18.0233 4.77512C18.2696 5.02146 18.408 5.35558 18.408 5.70397ZM13.1536 2.20104C13.1536 1.94124 13.2307 1.68727 13.375 1.47125C13.5194 1.25523 13.7245 1.08686 13.9645 0.987436C14.2046 0.888013 14.4687 0.861999 14.7235 0.912685C14.9783 0.96337 15.2124 1.08848 15.3961 1.27219C15.5798 1.4559 15.7049 1.68996 15.7556 1.94477C15.8063 2.19959 15.7803 2.46371 15.6808 2.70373C15.5814 2.94376 15.413 3.14892 15.197 3.29326C14.981 3.4376 14.727 3.51464 14.4672 3.51464C14.1188 3.51464 13.7847 3.37624 13.5384 3.1299C13.292 2.88355 13.1536 2.54943 13.1536 2.20104ZM15.7808 10.9584C15.7808 11.2182 15.7038 11.4721 15.5594 11.6882C15.4151 11.9042 15.21 12.0725 14.9699 12.172C14.7299 12.2714 14.4658 12.2974 14.211 12.2467C13.9561 12.196 13.7221 12.0709 13.5384 11.8872C13.3547 11.7035 13.2296 11.4694 13.1789 11.2146C13.1282 10.9598 13.1542 10.6957 13.2536 10.4557C13.353 10.2156 13.5214 10.0105 13.7374 9.86615C13.9535 9.72181 14.2074 9.64477 14.4672 9.64477C14.8156 9.64477 15.1497 9.78316 15.3961 10.0295C15.6424 10.2759 15.7808 10.61 15.7808 10.9584Z" fill="#FF7100"/>
</svg>
