<svg width="26" height="25" viewBox="0 0 26 25" fill="none" xmlns="http://www.w3.org/2000/svg">
<path d="M26 8.95789C26.0005 8.86491 25.9879 8.77233 25.9625 8.68289L24.1688 2.40789C24.0482 1.99153 23.7962 1.62534 23.4504 1.364C23.1045 1.10267 22.6835 0.960202 22.25 0.957886H3.75C3.31655 0.960202 2.89547 1.10267 2.54965 1.364C2.20382 1.62534 1.95182 1.99153 1.83125 2.40789L0.0387507 8.68289C0.012928 8.77227 -0.000117927 8.86485 8.03149e-07 8.95789V10.9579C8.03149e-07 11.7341 0.180726 12.4997 0.527865 13.194C0.875003 13.8882 1.37902 14.4922 2 14.9579V22.9579C2 23.4883 2.21071 23.997 2.58579 24.3721C2.96086 24.7472 3.46957 24.9579 4 24.9579H22C22.5304 24.9579 23.0391 24.7472 23.4142 24.3721C23.7893 23.997 24 23.4883 24 22.9579V14.9579C24.621 14.4922 25.125 13.8882 25.4721 13.194C25.8193 12.4997 26 11.7341 26 10.9579V8.95789ZM8 10.9579C7.99982 11.4738 7.86661 11.9809 7.61324 12.4303C7.35987 12.8796 6.9949 13.2561 6.55358 13.5232C6.11226 13.7904 5.60951 13.9392 5.09388 13.9554C4.57825 13.9715 4.06717 13.8544 3.61 13.6154C3.54044 13.5612 3.46392 13.5167 3.3825 13.4829C2.95884 13.2117 2.61019 12.8383 2.36861 12.397C2.12702 11.9558 2.00027 11.4609 2 10.9579V9.95789H8V10.9579ZM16 10.9579C16 11.7535 15.6839 12.5166 15.1213 13.0792C14.5587 13.6418 13.7957 13.9579 13 13.9579C12.2044 13.9579 11.4413 13.6418 10.8787 13.0792C10.3161 12.5166 10 11.7535 10 10.9579V9.95789H16V10.9579ZM24 10.9579C23.9996 11.461 23.8727 11.956 23.6308 12.3972C23.389 12.8385 23.0401 13.2118 22.6162 13.4829C22.5359 13.5167 22.4603 13.5609 22.3913 13.6141C21.9341 13.8534 21.423 13.9707 20.9073 13.9548C20.3916 13.9389 19.8887 13.7902 19.4473 13.5232C19.0058 13.2561 18.6407 12.8797 18.3872 12.4304C18.1336 11.981 18.0003 11.4738 18 10.9579V9.95789H24V10.9579Z" fill="#A9A9A9"/>
</svg>
