<svg width="24" height="24" viewBox="0 0 24 24" fill="none" xmlns="http://www.w3.org/2000/svg">
<path d="M22.5322 11.1477C21.3709 11.1477 20.2572 10.6864 19.436 9.86522C18.6149 9.04406 18.1536 7.93033 18.1536 6.76903C18.1536 6.53678 18.0613 6.31403 17.8971 6.1498C17.7328 5.98557 17.5101 5.8933 17.2778 5.8933C16.1165 5.8933 15.0028 5.43198 14.1817 4.61082C13.3605 3.78966 12.8992 2.67593 12.8992 1.51464C12.8992 1.28238 12.8069 1.05964 12.6427 0.895404C12.4784 0.731173 12.2557 0.638908 12.0234 0.638908C9.7718 0.638908 7.57072 1.3066 5.69854 2.55755C3.82637 3.80849 2.36718 5.58651 1.50552 7.66676C0.643849 9.74701 0.418397 12.0361 0.857672 14.2444C1.29695 16.4528 2.38122 18.4813 3.97337 20.0735C5.56552 21.6657 7.59405 22.7499 9.80243 23.1892C12.0108 23.6285 14.2999 23.403 16.3801 22.5414C18.4604 21.6797 20.2384 20.2205 21.4893 18.3483C22.7403 16.4762 23.408 14.2751 23.408 12.0234C23.408 11.7912 23.3157 11.5684 23.1515 11.4042C22.9872 11.24 22.7645 11.1477 22.5322 11.1477ZM6.27754 8.90473C6.46143 8.72147 6.6955 8.59682 6.95019 8.5465C7.20488 8.49619 7.46877 8.52247 7.70853 8.62202C7.94829 8.72158 8.15318 8.88995 8.29732 9.10587C8.44146 9.32179 8.51838 9.57558 8.51838 9.83519C8.51838 10.0948 8.44146 10.3486 8.29732 10.5645C8.15318 10.7804 7.94829 10.9488 7.70853 11.0484C7.46877 11.1479 7.20488 11.1742 6.95019 11.1239C6.6955 11.0736 6.46143 10.9489 6.27754 10.7657C6.15508 10.6436 6.05791 10.4986 5.99161 10.3389C5.92531 10.1793 5.89118 10.0081 5.89118 9.83519C5.89118 9.6623 5.92531 9.49112 5.99161 9.33145C6.05791 9.17178 6.15508 9.02676 6.27754 8.90473ZM9.01421 16.8958C8.83031 17.079 8.59625 17.2037 8.34156 17.254C8.08687 17.3043 7.82298 17.278 7.58322 17.1785C7.34346 17.0789 7.13857 16.9106 6.99443 16.6946C6.85029 16.4787 6.77337 16.2249 6.77337 15.9653C6.77337 15.7057 6.85029 15.4519 6.99443 15.236C7.13857 15.0201 7.34346 14.8517 7.58322 14.7521C7.82298 14.6526 8.08687 14.6263 8.34156 14.6766C8.59625 14.7269 8.83031 14.8516 9.01421 15.0349C9.1362 15.157 9.23291 15.302 9.29883 15.4615C9.36475 15.6211 9.39858 15.7921 9.39837 15.9647C9.39817 16.1373 9.36394 16.3082 9.29765 16.4676C9.23135 16.627 9.13429 16.7717 9.01202 16.8936L9.01421 16.8958ZM11.5319 12.5171C11.3487 12.3332 11.224 12.0992 11.1737 11.8445C11.1234 11.5898 11.1497 11.3259 11.2492 11.0861C11.3488 10.8464 11.5172 10.6415 11.7331 10.4973C11.949 10.3532 12.2028 10.2763 12.4624 10.2763C12.722 10.2763 12.9758 10.3532 13.1917 10.4973C13.4076 10.6415 13.576 10.8464 13.6756 11.0861C13.7751 11.3259 13.8014 11.5898 13.7511 11.8445C13.7008 12.0992 13.5761 12.3332 13.3929 12.5171C13.2707 12.6394 13.1256 12.7364 12.9658 12.8026C12.8061 12.8687 12.6348 12.9026 12.4619 12.9024C12.2891 12.9022 12.1179 12.8679 11.9583 12.8014C11.7987 12.7349 11.6538 12.6375 11.5319 12.5149V12.5171ZM16.0201 17.7715C15.8362 17.9548 15.6021 18.0794 15.3474 18.1297C15.0927 18.1801 14.8288 18.1538 14.5891 18.0542C14.3493 17.9547 14.1444 17.7863 14.0003 17.5704C13.8562 17.3545 13.7792 17.1007 13.7792 16.841C13.7792 16.5814 13.8562 16.3277 14.0003 16.1117C14.1444 15.8958 14.3493 15.7274 14.5891 15.6279C14.8288 15.5283 15.0927 15.502 15.3474 15.5524C15.6021 15.6027 15.8362 15.7273 16.0201 15.9106C16.1421 16.0327 16.2388 16.1777 16.3047 16.3373C16.3706 16.4968 16.4044 16.6678 16.4042 16.8404C16.404 17.013 16.3698 17.1839 16.3035 17.3433C16.2372 17.5027 16.1402 17.6475 16.0179 17.7693L16.0201 17.7715Z" fill="#FF7100"/>
</svg>
