<svg width="20" height="19" viewBox="0 0 20 19" fill="none" xmlns="http://www.w3.org/2000/svg">
<path d="M19.0938 5.53746L15.2125 1.65621C14.7906 1.23429 14.2183 0.997253 13.6216 0.997253C13.0249 0.997253 12.4526 1.23429 12.0306 1.65621L0.906272 12.7806C0.484347 13.2025 0.247314 13.7748 0.247314 14.3715C0.247314 14.9682 0.484347 15.5405 0.906272 15.9625L3.7244 18.7806C3.79432 18.8504 3.87737 18.9058 3.96875 18.9434C4.06014 18.9811 4.15806 19.0003 4.2569 19H18.25C18.4489 19 18.6397 18.9209 18.7804 18.7803C18.921 18.6396 19 18.4489 19 18.25C19 18.051 18.921 17.8603 18.7804 17.7196C18.6397 17.579 18.4489 17.5 18.25 17.5H10.3094L19.0938 8.71934C19.5157 8.29738 19.7527 7.72511 19.7527 7.1284C19.7527 6.53169 19.5157 5.95941 19.0938 5.53746ZM18.0316 7.65621L13 12.6896L8.06033 7.74996L13.0938 2.71934C13.1634 2.6496 13.2461 2.59428 13.3372 2.55654C13.4282 2.5188 13.5258 2.49937 13.6244 2.49937C13.723 2.49937 13.8206 2.5188 13.9116 2.55654C14.0027 2.59428 14.0854 2.6496 14.155 2.71934L18.0344 6.59871C18.1749 6.73935 18.2539 6.93004 18.2539 7.12887C18.2539 7.32769 18.1749 7.51839 18.0344 7.65902L18.0316 7.65621Z" fill="#9E9E9E"/>
</svg>
