<svg width="30" height="29" viewBox="0 0 30 29" fill="none" xmlns="http://www.w3.org/2000/svg">
<path d="M28.5 11.6251H27.323C27.0403 8.55223 25.6198 5.69587 23.34 3.61621C21.0603 1.53656 18.0858 0.383667 15 0.383667C11.9142 0.383667 8.93972 1.53656 6.65997 3.61621C4.38022 5.69587 2.95971 8.55223 2.67703 11.6251H1.5C1.20163 11.6251 0.915483 11.7436 0.704505 11.9546C0.493526 12.1655 0.375 12.4517 0.375 12.7501C0.379943 15.4255 1.11622 18.0486 2.50422 20.3359C3.89221 22.6231 5.8791 24.4873 8.25 25.7269V26.2501C8.25 26.8468 8.48705 27.4191 8.90901 27.841C9.33097 28.263 9.90326 28.5001 10.5 28.5001H19.5C20.0967 28.5001 20.669 28.263 21.091 27.841C21.5129 27.4191 21.75 26.8468 21.75 26.2501V25.7269C24.1209 24.4873 26.1078 22.6231 27.4958 20.3359C28.8838 18.0486 29.6201 15.4255 29.625 12.7501C29.625 12.4517 29.5065 12.1655 29.2955 11.9546C29.0845 11.7436 28.7984 11.6251 28.5 11.6251ZM21.3956 4.9074C21.6534 5.11834 21.9005 5.341 22.1367 5.57537C19.1419 6.62887 16.6671 8.794 15.225 11.6222H11.0766C11.7797 9.65129 13.0742 7.94547 14.7832 6.73784C16.4922 5.53021 18.5324 4.87966 20.625 4.87506C20.8823 4.87506 21.1397 4.88772 21.3956 4.9074ZM17.8294 11.6251C19.1933 9.5788 21.2568 8.10031 23.633 7.46678C24.4099 8.73051 24.8973 10.1506 25.0603 11.6251H17.8294ZM15 2.62506C15.9028 2.62566 16.8014 2.74721 17.6719 2.98647C15.5519 3.51237 13.6079 4.58782 12.036 6.10443C10.4641 7.62105 9.31974 9.52523 8.71828 11.6251H4.93969C5.21875 9.15127 6.39842 6.86669 8.25381 5.20685C10.1092 3.54702 12.5105 2.62802 15 2.62506Z" fill="#A9A9A9"/>
</svg>
