<svg width="25" height="25" viewBox="0 0 25 25" fill="none" xmlns="http://www.w3.org/2000/svg">
<path d="M23.4081 7.76899H19.8438C20.6148 9.10488 20.9234 10.6579 20.7217 12.187C20.5201 13.7162 19.8194 15.1361 18.7284 16.2264C17.7957 17.1776 16.5817 18.0785 15.2419 18.9094C15.158 18.9604 15.0594 18.9818 14.962 18.9701C14.8645 18.9584 14.7738 18.9143 14.7044 18.8448L10.8906 15.031C10.8076 14.948 10.7088 14.8825 10.6001 14.8385C10.4913 14.7944 10.3748 14.7727 10.2575 14.7745C10.1402 14.7763 10.0244 14.8017 9.91713 14.8492C9.80982 14.8966 9.71313 14.9652 9.63281 15.0507C9.47827 15.2241 9.39666 15.4505 9.40503 15.6826C9.41339 15.9147 9.51107 16.1346 9.67769 16.2964L12.9486 19.5673C12.9974 19.6161 13.034 19.6757 13.0555 19.7413C13.0769 19.8069 13.0825 19.8767 13.0718 19.9449C13.0611 20.0131 13.0345 20.0778 12.9941 20.1337C12.9536 20.1897 12.9005 20.2353 12.8391 20.2668C8.49217 22.524 3.81357 24.0291 3.13269 24.2415C2.80697 24.3933 2.44247 24.4411 2.08861 24.3787C1.73476 24.3162 1.40868 24.1464 1.15459 23.8923C0.900513 23.6383 0.730728 23.3122 0.668267 22.9583C0.605806 22.6045 0.653693 22.24 0.805432 21.9143C1.10428 20.9608 3.97996 12.0327 7.90543 7.31689C7.94444 7.27023 7.99275 7.23221 8.04727 7.20525C8.10178 7.17829 8.16132 7.16298 8.22208 7.1603C8.28285 7.15762 8.3435 7.16763 8.40018 7.18969C8.45686 7.21175 8.50832 7.24538 8.55128 7.28843L13.1544 11.8926C13.2395 11.9777 13.3413 12.0443 13.4533 12.0883C13.5653 12.1323 13.6852 12.1527 13.8055 12.1483C13.9258 12.1439 14.0439 12.1147 14.1524 12.0626C14.2609 12.0105 14.3575 11.9366 14.4362 11.8455C14.5801 11.6719 14.6532 11.4503 14.6411 11.2251C14.6289 10.9999 14.5323 10.7876 14.3705 10.6304L9.84299 6.10291C9.79682 6.05693 9.7615 6.00124 9.73959 5.93988C9.71768 5.87852 9.70974 5.81305 9.71634 5.74823C9.72295 5.68341 9.74394 5.62089 9.77778 5.56521C9.81162 5.50954 9.85746 5.46211 9.91195 5.4264C10.9981 4.70945 12.2625 4.3092 13.5633 4.27053C14.8642 4.23186 16.1501 4.5563 17.2769 5.20747V1.63886C17.2766 1.51871 17.301 1.39979 17.3487 1.28949C17.3964 1.1792 17.4662 1.07989 17.5539 0.997751C17.6416 0.915609 17.7452 0.85239 17.8584 0.812026C17.9716 0.771663 18.0918 0.755018 18.2117 0.763129C18.4374 0.782761 18.6472 0.887193 18.799 1.05538C18.9507 1.22357 19.033 1.44302 19.0294 1.66951V4.77946L21.9128 1.89501C21.9941 1.81365 22.0907 1.74911 22.197 1.70507C22.3033 1.66104 22.4173 1.63837 22.5323 1.63837C22.6474 1.63837 22.7614 1.66104 22.8677 1.70507C22.974 1.74911 23.0706 1.81365 23.1519 1.89501C23.2333 1.97638 23.2978 2.07297 23.3419 2.17928C23.3859 2.28559 23.4086 2.39953 23.4086 2.51459C23.4086 2.62966 23.3859 2.7436 23.3419 2.84991C23.2978 2.95622 23.2333 3.05281 23.1519 3.13417L20.2675 6.01752H23.3774C23.6039 6.0139 23.8234 6.09625 23.9916 6.24799C24.1597 6.39973 24.2642 6.60957 24.2838 6.83524C24.2918 6.95503 24.275 7.07517 24.2346 7.18821C24.1941 7.30125 24.1309 7.40476 24.0488 7.49233C23.9666 7.5799 23.8674 7.64964 23.7572 7.69724C23.647 7.74483 23.5281 7.76925 23.4081 7.76899Z" fill="#FF7100"/>
</svg>
