<svg width="21" height="21" viewBox="0 0 21 21" fill="none" xmlns="http://www.w3.org/2000/svg">
<path d="M10.0623 19.0312C5.11851 19.0312 1.09351 15.0062 1.09351 10.0624C1.09351 5.11869 5.11851 1.09369 10.0623 1.09369C15.006 1.09369 19.031 5.11869 19.031 10.0624C19.031 15.0062 15.006 19.0312 10.0623 19.0312ZM10.0623 2.40619C5.83601 2.40619 2.40601 5.84494 2.40601 10.0624C2.40601 14.2799 5.83601 17.7187 10.0623 17.7187C14.2885 17.7187 17.7185 14.2799 17.7185 10.0624C17.7185 5.84494 14.2885 2.40619 10.0623 2.40619Z" fill="#9E9E9E"/>
<path d="M19.2495 19.9063C19.0833 19.9063 18.917 19.845 18.7858 19.7138L17.0358 17.9638C16.782 17.71 16.782 17.29 17.0358 17.0363C17.2895 16.7825 17.7095 16.7825 17.9633 17.0363L19.7133 18.7863C19.967 19.04 19.967 19.46 19.7133 19.7138C19.582 19.845 19.4158 19.9063 19.2495 19.9063Z" fill="#9E9E9E"/>
</svg>
