<svg width="27" height="22" viewBox="0 0 27 22" fill="none" xmlns="http://www.w3.org/2000/svg">
<path d="M24.0467 6.80864C24.0045 6.70308 23.9602 6.59752 23.9148 6.49197C23.2337 4.92132 22.1316 3.56962 20.7301 2.58637H22.9912C23.2151 2.58637 23.4299 2.4974 23.5883 2.33903C23.7467 2.18067 23.8356 1.96588 23.8356 1.74191C23.8356 1.51795 23.7467 1.30316 23.5883 1.1448C23.4299 0.98643 23.2151 0.897461 22.9912 0.897461H12.0133C9.67846 0.900426 7.43015 1.78135 5.71479 3.3653C3.99943 4.94925 2.94248 7.12037 2.75384 9.44755C2.0244 9.62888 1.37628 10.0483 0.912069 10.6395C0.447861 11.2306 0.194086 11.9597 0.190918 12.7114C0.190918 12.9353 0.279887 13.1501 0.438253 13.3085C0.596619 13.4669 0.811409 13.5558 1.03537 13.5558C1.25933 13.5558 1.47412 13.4669 1.63249 13.3085C1.79086 13.1501 1.87983 12.9353 1.87983 12.7114C1.88002 12.4034 1.96441 12.1014 2.12385 11.838C2.28329 11.5745 2.51173 11.3597 2.78445 11.2167C2.99464 13.1113 3.78464 14.8948 5.04653 16.3235L6.37232 20.0349C6.48953 20.3632 6.70544 20.6471 6.99043 20.8478C7.27543 21.0485 7.61554 21.1562 7.96411 21.1559H9.3068C9.65519 21.1559 9.99507 21.0482 10.2799 20.8475C10.5646 20.6469 10.7804 20.363 10.8975 20.0349L11.1002 19.467H17.1486L17.3513 20.0349C17.4684 20.363 17.6842 20.6469 17.969 20.8475C18.2537 21.0482 18.5936 21.1559 18.942 21.1559H20.2847C20.6331 21.1559 20.973 21.0482 21.2578 20.8475C21.5425 20.6469 21.7583 20.363 21.8754 20.0349L23.5865 15.2447H23.8356C24.5075 15.2447 25.1519 14.9778 25.627 14.5027C26.1021 14.0276 26.369 13.3833 26.369 12.7114V9.33355C26.3691 8.69815 26.1304 8.08591 25.7003 7.61823C25.2701 7.15055 24.6799 6.86159 24.0467 6.80864ZM16.2355 5.11128H12.0133C11.7893 5.11128 11.5745 5.02232 11.4162 4.86395C11.2578 4.70558 11.1688 4.49079 11.1688 4.26683C11.1688 4.04287 11.2578 3.82808 11.4162 3.66971C11.5745 3.51135 11.7893 3.42238 12.0133 3.42238H16.2355C16.4595 3.42238 16.6743 3.51135 16.8327 3.66971C16.991 3.82808 17.08 4.04287 17.08 4.26683C17.08 4.49079 16.991 4.70558 16.8327 4.86395C16.6743 5.02232 16.4595 5.11128 16.2355 5.11128ZM19.1911 11.0225C18.9406 11.0225 18.6957 10.9482 18.4874 10.809C18.2791 10.6698 18.1167 10.472 18.0209 10.2405C17.925 10.0091 17.8999 9.75437 17.9488 9.50866C17.9977 9.26295 18.1183 9.03725 18.2955 8.8601C18.4726 8.68295 18.6983 8.56231 18.944 8.51344C19.1897 8.46456 19.4444 8.48965 19.6759 8.58552C19.9073 8.68139 20.1051 8.84375 20.2443 9.05205C20.3835 9.26035 20.4578 9.50525 20.4578 9.75578C20.4578 10.0917 20.3244 10.4139 20.0868 10.6515C19.8493 10.889 19.5271 11.0225 19.1911 11.0225Z" fill="#FF7100"/>
</svg>
