<svg width="26" height="26" viewBox="0 0 26 26" fill="none" xmlns="http://www.w3.org/2000/svg">
<path d="M25.8662 24.8873C25.7784 25.0394 25.6521 25.1656 25.5001 25.2534C25.348 25.3412 25.1755 25.3874 25 25.3873H0.999951C0.824502 25.3871 0.652187 25.3408 0.500311 25.253C0.348434 25.1651 0.222342 25.0389 0.134695 24.8869C0.0470479 24.7349 0.000931552 24.5625 0.000976595 24.3871C0.00102164 24.2116 0.0472264 24.0393 0.134951 23.8873C2.0387 20.5961 4.97245 18.2361 8.3962 17.1173C6.70266 16.1091 5.38688 14.5729 4.65094 12.7446C3.91499 10.9162 3.79956 8.89681 4.32238 6.99651C4.8452 5.0962 5.97735 3.42005 7.54498 2.22547C9.11261 1.03088 11.029 0.383911 13 0.383911C14.9709 0.383911 16.8873 1.03088 18.4549 2.22547C20.0226 3.42005 21.1547 5.0962 21.6775 6.99651C22.2003 8.89681 22.0849 10.9162 21.349 12.7446C20.613 14.5729 19.2972 16.1091 17.6037 17.1173C21.0275 18.2361 23.9612 20.5961 25.865 23.8873C25.9529 24.0392 25.9993 24.2116 25.9996 24.3871C25.9998 24.5627 25.9538 24.7352 25.8662 24.8873Z" fill="#A9A9A9"/>
</svg>
